<?xml version="1.0" encoding="utf-8"?>
<svg version="1.1" id="Слой_1" x="0px" y="0px" viewBox="0 0 1930 570" style="enable-background:new 0 0 1930 570;" xmlns="http://www.w3.org/2000/svg">
  <style type="text/css">
	.st0{fill:#0080C8;}
	.st1{fill:#6F6F6E;}
	.st2{fill:#FFFFFF;}
</style>
  <g>
    <g>
      <polygon class="st0" points="483.2,244.2 252.6,244.2 483.2,13.6 &#9;&#9;"/>
      <polygon class="st0" points="483.2,477.8 252.6,477.8 483.2,247.1 &#9;&#9;"/>
      <polygon class="st0" points="249.7,477.8 19,477.8 249.7,247.1 &#9;&#9;"/>
    </g>
    <g>
      <path class="st1" d="M631.1,552.1h-22.1V281.9c0-12,7.3-18.7,10.6-21.3c8.5-6.4,18.7-6.8,25.1-6.8h57.1c14.9,0,45.1,2.1,67.3,26 c23,24.3,23.9,56.7,23.9,83.5c0,28.5-1.7,57.9-17.9,82.7c-17.9,26.8-43.5,33.7-80.1,33.7h-63.9V552.1L631.1,552.1z M704,459.6 L704,459.6c20.5,0,40.9-8.1,52.4-25.5c10.2-15.8,12.8-38.4,12.8-67.8c0-31.1-3-48.2-8.1-59.7c-10.7-23.9-34.1-32.8-54.5-32.8 h-65.2c-2.1,0-5.1,1.7-6.8,3c-3,2.6-3.4,5.1-3.4,8.1v174.7H704z"/>
      <path class="st1" d="M942.2,253.8c15.3,0,30.7,5.9,39.6,15.7c12,12.8,13.7,31.5,13.7,45.2v135.1c0,6-0.4,16.6-7.7,23.5 c-6.8,6.4-17.9,6.4-25.6,6.4h-86.9c-12.8,0-28.6-0.4-40.9-10.2c-18.7-15.3-20-46-20-59.7c0-18.3,2.6-39.6,18.7-53.3 c12.4-10.2,29.4-11.9,42.2-11.9h98v-33.7c0-7.2-3-20-8.5-26.8c-4.7-5.6-13.2-10.2-23.9-10.2H831.3v-20H942.2L942.2,253.8z M870.2,364.6L870.2,364.6c-13.2,0-21.3,6.4-24.7,11.1c-5.5,7.3-7.2,19.2-7.2,35c0,13.6,1.3,29.8,9,39.2 c4.7,5.5,12.8,9.8,22.1,9.8h91.2c2.6,0,6.8,0,9.8-2.6c3-2.5,3-4.7,3-7.7v-84.8H870.2z"/>
      <path class="st1" d="M1032.1,479.6V253.8h22.1v225.8H1032.1L1032.1,479.6z M1174.4,479.6L1174.4,479.6l-95-89.5 c-11.5-10.6-14.5-20-14.5-26.8c0-10.6,10.2-22.6,17.5-29.4l86.1-80.1h30.3l-100.5,95c-3,3-9.4,8.9-9.4,14.5 c0,3.8,4.3,9.8,6.8,12.4l110.3,104H1174.4z"/>
      <polygon class="st1" points="1282.6,552.5 1258.8,552.5 1292.8,478.3 1197.4,253.8 1221.2,253.8 1304.8,452 1393.8,253.8 &#10;&#9;&#9;&#9;1417.7,253.8 &#9;&#9;"/>
      <path class="st1" d="M1446.7,552.1h-22.2V281.9c0-12,7.3-18.7,10.7-21.3c8.5-6.4,18.7-6.8,25.1-6.8h57.1c14.9,0,45.2,2.1,67.3,26 c23,24.3,23.9,56.7,23.9,83.5c0,28.5-1.7,57.9-17.9,82.7c-17.9,26.8-43.5,33.7-80.1,33.7h-63.9V552.1L1446.7,552.1z M1519.5,459.6 L1519.5,459.6c20.5,0,40.9-8.1,52.4-25.5c10.2-15.8,12.8-38.4,12.8-67.8c0-31.1-3-48.2-8.1-59.7c-10.7-23.9-34.1-32.8-54.5-32.8 h-65.2c-2.1,0-5.1,1.7-6.8,3c-3,2.6-3.4,5.1-3.4,8.1v174.7H1519.5z"/>
      <path class="st1" d="M1719.8,479.6c-32,0-53.3-12.8-66.5-28.5c-17.9-21.3-20.5-48.2-20.5-81.4c0-30.7,1.7-66.4,25.6-90.7 c13.2-13.2,34.9-25.1,70.3-25.1h76.3v20h-78.8c-36.2,0-58.4,19.2-65.2,46c-3,12.3-4.3,41.7-4.3,52.8c0,14.9,2.2,40.5,7.7,53.3 c13.2,29.8,46,33.7,66.5,33.7h79.3v20H1719.8z"/>
    </g>
    <path class="st1" d="M1888.6,45.7c18,0,33.4,14.3,33.4,33.5c0,19.5-15.4,33.6-33.4,33.6c-18.3,0-33.7-14.1-33.7-33.6 C1854.9,60,1870.3,45.7,1888.6,45.7L1888.6,45.7z M1888.6,51L1888.6,51c-15.4,0-27.2,12.3-27.2,28.2c0,16.2,11.9,28.2,27.2,28.2 c15.2,0,27.1-12,27.1-28.2C1915.7,63.4,1903.7,51,1888.6,51L1888.6,51z"/>
    <g id="XMLID_1_">
      <g>
        <path class="st1" d="M1893.8,81.6l10.9,17.1h-6.4l-10.2-16.8h-6.6v16.8h-5.8V60h14.5c9.3,0,13.7,3.3,13.7,10.8 C1903.9,78,1899.6,81,1893.8,81.6z M1898,70.5c0-3.6-1.8-5.7-8.5-5.7h-8v12h7C1895.6,76.8,1898,75,1898,70.5z"/>
        <path class="st2" d="M1889.5,64.8c6.7,0,8.5,2.1,8.5,5.7c0,4.5-2.4,6.3-9.5,6.3h-7v-12H1889.5z" style="fill: none;"/>
      </g>
    </g>
  </g>
</svg>